<svg width="222.817017" height="45.470215" viewBox="0 0 222.817 45.4702" fill="none" xmlns="http://www.w3.org/2000/svg" xmlns:xlink="http://www.w3.org/1999/xlink">
	<desc>
			Created with Pixso.
	</desc>
	<defs/>
	<path id="Vector" d="M16.66 35.32C13.19 35.32 10.22 34.59 7.74 33.12C5.25 31.63 3.34 29.56 2 26.93C0.66 24.26 0 21.19 0 17.7C0 14.23 0.66 11.15 2 8.48C3.34 5.82 5.25 3.74 7.74 2.24C10.22 0.74 13.19 0 16.66 0C20.77 0 24.14 1.02 26.75 3.07C29.4 5.09 31.04 7.93 31.7 11.61L24.79 11.61C24.36 9.75 23.45 8.31 22.05 7.26C20.67 6.19 18.84 5.65 16.56 5.65C13.39 5.65 10.91 6.73 9.11 8.87C7.31 11.02 6.41 13.96 6.41 17.7C6.41 21.45 7.31 24.39 9.11 26.54C10.91 28.65 13.39 29.71 16.56 29.71C18.84 29.71 20.67 29.22 22.05 28.24C23.45 27.23 24.36 25.85 24.79 24.1L31.7 24.1C31.04 27.61 29.4 30.36 26.75 32.34C24.14 34.33 20.77 35.32 16.66 35.32ZM44.5 35.32C42.41 35.32 40.7 34.99 39.36 34.34C38.02 33.66 37.02 32.76 36.37 31.66C35.71 30.55 35.39 29.33 35.39 28C35.39 25.75 36.27 23.93 38.03 22.54C39.8 21.14 42.44 20.44 45.97 20.44L52.15 20.44L52.15 19.85C52.15 18.19 51.67 16.97 50.73 16.19C49.78 15.41 48.6 15.02 47.2 15.02C45.92 15.02 44.81 15.33 43.87 15.95C42.92 16.53 42.33 17.41 42.1 18.58L35.98 18.58C36.14 16.83 36.73 15.3 37.74 14C38.79 12.7 40.12 11.7 41.76 11.02C43.39 10.31 45.22 9.95 47.25 9.95C50.71 9.95 53.44 10.81 55.43 12.53C57.42 14.26 58.42 16.7 58.42 19.85L58.42 34.73L53.08 34.73L52.49 30.83C51.77 32.13 50.76 33.2 49.45 34.05C48.18 34.89 46.53 35.32 44.5 35.32ZM45.92 30.44C47.72 30.44 49.11 29.85 50.09 28.68C51.1 27.51 51.74 26.06 52 24.34L46.66 24.34C44.99 24.34 43.8 24.65 43.08 25.27C42.36 25.85 42 26.58 42 27.46C42 28.41 42.36 29.14 43.08 29.66C43.8 30.18 44.75 30.44 45.92 30.44ZM73.47 35.32C71.31 35.32 69.42 34.98 67.78 34.29C66.15 33.58 64.84 32.6 63.86 31.37C62.88 30.13 62.3 28.7 62.1 27.07L68.42 27.07C68.62 28.02 69.14 28.83 69.99 29.51C70.87 30.16 72 30.49 73.37 30.49C74.74 30.49 75.74 30.21 76.36 29.66C77.01 29.1 77.34 28.47 77.34 27.76C77.34 26.71 76.88 26.02 75.97 25.66C75.05 25.27 73.78 24.89 72.15 24.54C71.1 24.31 70.04 24.03 68.96 23.71C67.88 23.38 66.89 22.97 65.97 22.49C65.09 21.97 64.37 21.32 63.82 20.53C63.26 19.72 62.98 18.73 62.98 17.56C62.98 15.41 63.83 13.61 65.53 12.14C67.26 10.68 69.68 9.95 72.78 9.95C75.66 9.95 77.94 10.61 79.64 11.95C81.37 13.28 82.4 15.12 82.73 17.46L76.8 17.46C76.44 15.67 75.09 14.78 72.73 14.78C71.56 14.78 70.64 15.01 69.99 15.46C69.37 15.92 69.06 16.49 69.06 17.17C69.06 17.88 69.53 18.45 70.48 18.88C71.43 19.3 72.68 19.69 74.25 20.05C75.95 20.44 77.5 20.88 78.91 21.36C80.34 21.82 81.49 22.52 82.34 23.46C83.19 24.37 83.61 25.69 83.61 27.41C83.64 28.91 83.25 30.26 82.44 31.46C81.62 32.67 80.44 33.61 78.91 34.29C77.37 34.98 75.56 35.32 73.47 35.32ZM98.25 34.73C95.7 34.73 93.66 34.11 92.13 32.88C90.59 31.64 89.82 29.45 89.82 26.29L89.82 15.75L85.66 15.75L85.66 10.53L89.82 10.53L90.56 4.04L96.09 4.04L96.09 10.53L102.66 10.53L102.66 15.75L96.09 15.75L96.09 26.34C96.09 27.51 96.34 28.32 96.83 28.78C97.35 29.2 98.23 29.41 99.48 29.41L102.51 29.41L102.51 34.73L98.25 34.73ZM115.45 35.32C113.35 35.32 111.64 34.99 110.3 34.34C108.96 33.66 107.96 32.76 107.31 31.66C106.66 30.55 106.33 29.33 106.33 28C106.33 25.75 107.21 23.93 108.98 22.54C110.74 21.14 113.39 20.44 116.92 20.44L123.09 20.44L123.09 19.85C123.09 18.19 122.62 16.97 121.67 16.19C120.72 15.41 119.54 15.02 118.14 15.02C116.87 15.02 115.76 15.33 114.81 15.95C113.86 16.53 113.27 17.41 113.04 18.58L106.92 18.58C107.08 16.83 107.67 15.3 108.68 14C109.73 12.7 111.07 11.7 112.7 11.02C114.33 10.31 116.16 9.95 118.19 9.95C121.65 9.95 124.38 10.81 126.37 12.53C128.36 14.26 129.36 16.7 129.36 19.85L129.36 34.73L124.02 34.73L123.43 30.83C122.71 32.13 121.7 33.2 120.39 34.05C119.12 34.89 117.47 35.32 115.45 35.32ZM116.87 30.44C118.66 30.44 120.05 29.85 121.03 28.68C122.04 27.51 122.68 26.06 122.94 24.34L117.6 24.34C115.94 24.34 114.74 24.65 114.02 25.27C113.31 25.85 112.95 26.58 112.95 27.46C112.95 28.41 113.31 29.14 114.02 29.66C114.74 30.18 115.69 30.44 116.87 30.44ZM138.88 34.73L131.78 10.53L138 10.53L142.21 27.95L147.11 10.53L154.07 10.53L158.97 27.95L163.23 10.53L169.46 10.53L162.3 34.73L155.78 34.73L150.59 16.63L145.4 34.73L138.88 34.73ZM179.57 35.32C177.48 35.32 175.76 34.99 174.42 34.34C173.08 33.66 172.09 32.76 171.43 31.66C170.78 30.55 170.45 29.33 170.45 28C170.45 25.75 171.34 23.93 173.1 22.54C174.86 21.14 177.51 20.44 181.04 20.44L187.21 20.44L187.21 19.85C187.21 18.19 186.74 16.97 185.79 16.19C184.84 15.41 183.67 15.02 182.26 15.02C180.99 15.02 179.88 15.33 178.93 15.95C177.98 16.53 177.4 17.41 177.17 18.58L171.04 18.58C171.21 16.83 171.79 15.3 172.81 14C173.85 12.7 175.19 11.7 176.82 11.02C178.46 10.31 180.29 9.95 182.31 9.95C185.78 9.95 188.5 10.81 190.49 12.53C192.49 14.26 193.48 16.7 193.48 19.85L193.48 34.73L188.14 34.73L187.55 30.83C186.84 32.13 185.82 33.2 184.52 34.05C183.24 34.89 181.59 35.32 179.57 35.32ZM180.99 30.44C182.79 30.44 184.17 29.85 185.15 28.68C186.17 27.51 186.8 26.06 187.06 24.34L181.72 24.34C180.06 24.34 178.87 24.65 178.15 25.27C177.43 25.85 177.07 26.58 177.07 27.46C177.07 28.41 177.43 29.14 178.15 29.66C178.87 30.18 179.81 30.44 180.99 30.44ZM200.71 45.47L206.35 33.12L204.88 33.12L195.42 10.53L202.23 10.53L209.04 27.56L216.15 10.53L222.81 10.53L207.38 45.47L200.71 45.47Z" fill="#FFFFFF" fill-opacity="1.000000" fill-rule="nonzero"/>
</svg>
